<?xml version="1.0"?>
<svg xmlns="http://www.w3.org/2000/svg" viewBox="-30 -30 520 520" width="520" height="520">
<rect x="-30" y="-30" width="520" height="520" fill="#0E0F12"></rect>
<g transform="translate(-16.72,-16.72) scale(0.965)"><path d="M474.39,153.85c-20.26-19.72-47.79-31.19-82.62-34.45-3.41-34.64-15.01-62.09-34.77-82.29C333.13,12.71,297.93.51,254.46.51s-77.02,12.14-100.61,36.43c-19.71,20.24-31.17,47.75-34.44,82.54-34.76,3.28-62.24,14.74-82.47,34.44C12.65,177.49.51,210.05.51,254.52s12.2,78.67,36.61,102.54v.06c20.22,19.83,47.66,31.4,82.36,34.78,3.28,34.76,14.74,62.25,34.44,82.48,23.58,24.29,56.14,36.43,100.61,36.43s78.67-12.2,102.54-36.61h.06c19.85-20.23,31.41-47.7,34.79-82.44,34.65-3.41,62.1-15,82.3-34.77,24.4-23.88,36.61-59.13,36.61-102.54s-12.14-76.97-36.43-100.61Z" fill="#0a0b0d"></path></g><g transform="translate(-12.88,-12.88) scale(0.950)"><path d="M474.39,153.85c-20.26-19.72-47.79-31.19-82.62-34.45-3.41-34.64-15.01-62.09-34.77-82.29C333.13,12.71,297.93.51,254.46.51s-77.02,12.14-100.61,36.43c-19.71,20.24-31.17,47.75-34.44,82.54-34.76,3.28-62.24,14.74-82.47,34.44C12.65,177.49.51,210.05.51,254.52s12.2,78.67,36.61,102.54v.06c20.22,19.83,47.66,31.4,82.36,34.78,3.28,34.76,14.74,62.25,34.44,82.48,23.58,24.29,56.14,36.43,100.61,36.43s78.67-12.2,102.54-36.61h.06c19.85-20.23,31.41-47.7,34.79-82.44,34.65-3.41,62.1-15,82.3-34.77,24.4-23.88,36.61-59.13,36.61-102.54s-12.14-76.97-36.43-100.61Z" fill="#191c21" stroke="rgba(255,255,255,.12)" stroke-width="1.3"></path></g><path d="M69.52,317.41 A99,99 0 0 1 69.52,142.59" fill="none" stroke="#FF2D8E" stroke-width="1.2" opacity="0.9" stroke-linecap="round"></path><circle cx="116" cy="230" r="95" fill="#17191e" stroke="rgba(255,255,255,.05)" stroke-width="1"></circle><circle cx="116" cy="230" r="94" fill="none" stroke="rgba(0,0,0,.6)" stroke-width="2"></circle><circle cx="116" cy="230" r="84" fill="#0c0d10" stroke="rgba(255,255,255,.04)" stroke-width="1"></circle><line x1="116.0" y1="162.0" x2="116.0" y2="151.0" stroke="#FFFFFF" stroke-width="1.4" opacity="0.22"></line><line x1="122.2" y1="159.3" x2="122.9" y2="151.3" stroke="#FFFFFF" stroke-width="0.9" opacity="0.12"></line><line x1="128.3" y1="160.1" x2="129.7" y2="152.2" stroke="#FFFFFF" stroke-width="0.9" opacity="0.12"></line><line x1="134.4" y1="161.4" x2="136.4" y2="153.7" stroke="#FFFFFF" stroke-width="0.9" opacity="0.12"></line><line x1="140.3" y1="163.3" x2="143.0" y2="155.8" stroke="#FFFFFF" stroke-width="0.9" opacity="0.12"></line><line x1="146.0" y1="165.7" x2="149.4" y2="158.4" stroke="#FFFFFF" stroke-width="0.9" opacity="0.12"></line><line x1="150.0" y1="171.1" x2="155.5" y2="161.6" stroke="#FFFFFF" stroke-width="1.4" opacity="0.22"></line><line x1="156.7" y1="171.8" x2="161.3" y2="165.3" stroke="#FFFFFF" stroke-width="0.9" opacity="0.12"></line><line x1="161.6" y1="175.6" x2="166.8" y2="169.5" stroke="#FFFFFF" stroke-width="0.9" opacity="0.12"></line><line x1="166.2" y1="179.8" x2="171.9" y2="174.1" stroke="#FFFFFF" stroke-width="0.9" opacity="0.12"></line><line x1="170.4" y1="184.4" x2="176.5" y2="179.2" stroke="#FFFFFF" stroke-width="0.9" opacity="0.12"></line><line x1="174.2" y1="189.3" x2="180.7" y2="184.7" stroke="#FFFFFF" stroke-width="0.9" opacity="0.12"></line><line x1="174.9" y1="196.0" x2="184.4" y2="190.5" stroke="#FFFFFF" stroke-width="1.4" opacity="0.22"></line><line x1="180.3" y1="200.0" x2="187.6" y2="196.6" stroke="#FFFFFF" stroke-width="0.9" opacity="0.12"></line><line x1="182.7" y1="205.7" x2="190.2" y2="203.0" stroke="#FFFFFF" stroke-width="0.9" opacity="0.12"></line><line x1="184.6" y1="211.6" x2="192.3" y2="209.6" stroke="#FFFFFF" stroke-width="0.9" opacity="0.12"></line><line x1="185.9" y1="217.7" x2="193.8" y2="216.3" stroke="#FFFFFF" stroke-width="0.9" opacity="0.12"></line><line x1="186.7" y1="223.8" x2="194.7" y2="223.1" stroke="#FFFFFF" stroke-width="0.9" opacity="0.12"></line><line x1="184.0" y1="230.0" x2="195.0" y2="230.0" stroke="#FFFFFF" stroke-width="1.4" opacity="0.22"></line><line x1="186.7" y1="236.2" x2="194.7" y2="236.9" stroke="#FFFFFF" stroke-width="0.9" opacity="0.12"></line><line x1="185.9" y1="242.3" x2="193.8" y2="243.7" stroke="#FFFFFF" stroke-width="0.9" opacity="0.12"></line><line x1="184.6" y1="248.4" x2="192.3" y2="250.4" stroke="#FFFFFF" stroke-width="0.9" opacity="0.12"></line><line x1="182.7" y1="254.3" x2="190.2" y2="257.0" stroke="#FFFFFF" stroke-width="0.9" opacity="0.12"></line><line x1="180.3" y1="260.0" x2="187.6" y2="263.4" stroke="#FFFFFF" stroke-width="0.9" opacity="0.12"></line><line x1="174.9" y1="264.0" x2="184.4" y2="269.5" stroke="#FFFFFF" stroke-width="1.4" opacity="0.22"></line><line x1="174.2" y1="270.7" x2="180.7" y2="275.3" stroke="#FFFFFF" stroke-width="0.9" opacity="0.12"></line><line x1="170.4" y1="275.6" x2="176.5" y2="280.8" stroke="#FFFFFF" stroke-width="0.9" opacity="0.12"></line><line x1="166.2" y1="280.2" x2="171.9" y2="285.9" stroke="#FFFFFF" stroke-width="0.9" opacity="0.12"></line><line x1="161.6" y1="284.4" x2="166.8" y2="290.5" stroke="#FFFFFF" stroke-width="0.9" opacity="0.12"></line><line x1="156.7" y1="288.2" x2="161.3" y2="294.7" stroke="#FFFFFF" stroke-width="0.9" opacity="0.12"></line><line x1="150.0" y1="288.9" x2="155.5" y2="298.4" stroke="#FFFFFF" stroke-width="1.4" opacity="0.22"></line><line x1="146.0" y1="294.3" x2="149.4" y2="301.6" stroke="#FFFFFF" stroke-width="0.9" opacity="0.12"></line><line x1="140.3" y1="296.7" x2="143.0" y2="304.2" stroke="#FFFFFF" stroke-width="0.9" opacity="0.12"></line><line x1="134.4" y1="298.6" x2="136.4" y2="306.3" stroke="#FFFFFF" stroke-width="0.9" opacity="0.12"></line><line x1="128.3" y1="299.9" x2="129.7" y2="307.8" stroke="#FFFFFF" stroke-width="0.9" opacity="0.12"></line><line x1="122.2" y1="300.7" x2="122.9" y2="308.7" stroke="#FFFFFF" stroke-width="0.9" opacity="0.12"></line><line x1="116.0" y1="298.0" x2="116.0" y2="309.0" stroke="#FFFFFF" stroke-width="1.4" opacity="0.22"></line><line x1="109.8" y1="300.7" x2="109.1" y2="308.7" stroke="#FFFFFF" stroke-width="0.9" opacity="0.12"></line><line x1="103.7" y1="299.9" x2="102.3" y2="307.8" stroke="#FFFFFF" stroke-width="0.9" opacity="0.12"></line><line x1="97.6" y1="298.6" x2="95.6" y2="306.3" stroke="#FFFFFF" stroke-width="0.9" opacity="0.12"></line><line x1="91.7" y1="296.7" x2="89.0" y2="304.2" stroke="#FFFFFF" stroke-width="0.9" opacity="0.12"></line><line x1="86.0" y1="294.3" x2="82.6" y2="301.6" stroke="#FFFFFF" stroke-width="0.9" opacity="0.12"></line><line x1="82.0" y1="288.9" x2="76.5" y2="298.4" stroke="#FF2D8E" stroke-width="1.4" opacity="0.95"></line><line x1="75.3" y1="288.2" x2="70.7" y2="294.7" stroke="#FF2D8E" stroke-width="0.9" opacity="0.6"></line><line x1="70.4" y1="284.4" x2="65.2" y2="290.5" stroke="#FF2D8E" stroke-width="0.9" opacity="0.6"></line><line x1="65.8" y1="280.2" x2="60.1" y2="285.9" stroke="#FF2D8E" stroke-width="0.9" opacity="0.6"></line><line x1="61.6" y1="275.6" x2="55.5" y2="280.8" stroke="#FF2D8E" stroke-width="0.9" opacity="0.6"></line><line x1="57.8" y1="270.7" x2="51.3" y2="275.3" stroke="#FF2D8E" stroke-width="0.9" opacity="0.6"></line><line x1="57.1" y1="264.0" x2="47.6" y2="269.5" stroke="#FF2D8E" stroke-width="1.4" opacity="0.95"></line><line x1="51.7" y1="260.0" x2="44.4" y2="263.4" stroke="#FF2D8E" stroke-width="0.9" opacity="0.6"></line><line x1="49.3" y1="254.3" x2="41.8" y2="257.0" stroke="#FF2D8E" stroke-width="0.9" opacity="0.6"></line><line x1="47.4" y1="248.4" x2="39.7" y2="250.4" stroke="#FF2D8E" stroke-width="0.9" opacity="0.6"></line><line x1="46.1" y1="242.3" x2="38.2" y2="243.7" stroke="#FF2D8E" stroke-width="0.9" opacity="0.6"></line><line x1="45.3" y1="236.2" x2="37.3" y2="236.9" stroke="#FF2D8E" stroke-width="0.9" opacity="0.6"></line><line x1="48.0" y1="230.0" x2="37.0" y2="230.0" stroke="#FF2D8E" stroke-width="1.4" opacity="0.95"></line><line x1="45.3" y1="223.8" x2="37.3" y2="223.1" stroke="#FF2D8E" stroke-width="0.9" opacity="0.6"></line><line x1="46.1" y1="217.7" x2="38.2" y2="216.3" stroke="#FF2D8E" stroke-width="0.9" opacity="0.6"></line><line x1="47.4" y1="211.6" x2="39.7" y2="209.6" stroke="#FF2D8E" stroke-width="0.9" opacity="0.6"></line><line x1="49.3" y1="205.7" x2="41.8" y2="203.0" stroke="#FF2D8E" stroke-width="0.9" opacity="0.6"></line><line x1="51.7" y1="200.0" x2="44.4" y2="196.6" stroke="#FF2D8E" stroke-width="0.9" opacity="0.6"></line><line x1="57.1" y1="196.0" x2="47.6" y2="190.5" stroke="#FF2D8E" stroke-width="1.4" opacity="0.95"></line><line x1="57.8" y1="189.3" x2="51.3" y2="184.7" stroke="#FF2D8E" stroke-width="0.9" opacity="0.6"></line><line x1="61.6" y1="184.4" x2="55.5" y2="179.2" stroke="#FF2D8E" stroke-width="0.9" opacity="0.6"></line><line x1="65.8" y1="179.8" x2="60.1" y2="174.1" stroke="#FF2D8E" stroke-width="0.9" opacity="0.6"></line><line x1="70.4" y1="175.6" x2="65.2" y2="169.5" stroke="#FF2D8E" stroke-width="0.9" opacity="0.6"></line><line x1="75.3" y1="171.8" x2="70.7" y2="165.3" stroke="#FF2D8E" stroke-width="0.9" opacity="0.6"></line><line x1="82.0" y1="171.1" x2="76.5" y2="161.6" stroke="#FF2D8E" stroke-width="1.4" opacity="0.95"></line><line x1="86.0" y1="165.7" x2="82.6" y2="158.4" stroke="#FFFFFF" stroke-width="0.9" opacity="0.12"></line><line x1="91.7" y1="163.3" x2="89.0" y2="155.8" stroke="#FFFFFF" stroke-width="0.9" opacity="0.12"></line><line x1="97.6" y1="161.4" x2="95.6" y2="153.7" stroke="#FFFFFF" stroke-width="0.9" opacity="0.12"></line><line x1="103.7" y1="160.1" x2="102.3" y2="152.2" stroke="#FFFFFF" stroke-width="0.9" opacity="0.12"></line><line x1="109.8" y1="159.3" x2="109.1" y2="151.3" stroke="#FFFFFF" stroke-width="0.9" opacity="0.12"></line><path d="M76.50,298.42 A79,79 0 0 1 76.50,161.58" fill="none" stroke="#FF2D8E" stroke-width="2.2" opacity="0.95" stroke-linecap="round"></path><g transform="translate(108,205) scale(1.2)"><circle cx="0" cy="-5.2" r="4" fill="#EDEFF1"></circle><path d="M-7.6,8.5 C-7.6,0.6 -3.4,-1.8 0,-1.8 C3.4,-1.8 7.6,0.6 7.6,8.5 Z" fill="#EDEFF1"></path></g><text x="108" y="237" text-anchor="middle" font-family="&#39;Space Grotesk&#39;,sans-serif" font-weight="600" font-size="15" letter-spacing="1.5" fill="#F1F2F4">CRM</text><text x="108" y="252" text-anchor="middle" font-family="&#39;Space Grotesk&#39;,sans-serif" font-weight="600" font-size="5.5" letter-spacing="0.6" fill="#FF2D8E">MANAGE · NURTURE · CONVERT</text><path d="M317.41,390.48 A99,99 0 0 1 142.59,390.48" fill="none" stroke="#BEE83A" stroke-width="1.2" opacity="0.9" stroke-linecap="round"></path><circle cx="230" cy="344" r="95" fill="#17191e" stroke="rgba(255,255,255,.05)" stroke-width="1"></circle><circle cx="230" cy="344" r="94" fill="none" stroke="rgba(0,0,0,.6)" stroke-width="2"></circle><circle cx="230" cy="344" r="84" fill="#0c0d10" stroke="rgba(255,255,255,.04)" stroke-width="1"></circle><line x1="230.0" y1="276.0" x2="230.0" y2="265.0" stroke="#FFFFFF" stroke-width="1.4" opacity="0.22"></line><line x1="236.2" y1="273.3" x2="236.9" y2="265.3" stroke="#FFFFFF" stroke-width="0.9" opacity="0.12"></line><line x1="242.3" y1="274.1" x2="243.7" y2="266.2" stroke="#FFFFFF" stroke-width="0.9" opacity="0.12"></line><line x1="248.4" y1="275.4" x2="250.4" y2="267.7" stroke="#FFFFFF" stroke-width="0.9" opacity="0.12"></line><line x1="254.3" y1="277.3" x2="257.0" y2="269.8" stroke="#FFFFFF" stroke-width="0.9" opacity="0.12"></line><line x1="260.0" y1="279.7" x2="263.4" y2="272.4" stroke="#FFFFFF" stroke-width="0.9" opacity="0.12"></line><line x1="264.0" y1="285.1" x2="269.5" y2="275.6" stroke="#FFFFFF" stroke-width="1.4" opacity="0.22"></line><line x1="270.7" y1="285.8" x2="275.3" y2="279.3" stroke="#FFFFFF" stroke-width="0.9" opacity="0.12"></line><line x1="275.6" y1="289.6" x2="280.8" y2="283.5" stroke="#FFFFFF" stroke-width="0.9" opacity="0.12"></line><line x1="280.2" y1="293.8" x2="285.9" y2="288.1" stroke="#FFFFFF" stroke-width="0.9" opacity="0.12"></line><line x1="284.4" y1="298.4" x2="290.5" y2="293.2" stroke="#FFFFFF" stroke-width="0.9" opacity="0.12"></line><line x1="288.2" y1="303.3" x2="294.7" y2="298.7" stroke="#FFFFFF" stroke-width="0.9" opacity="0.12"></line><line x1="288.9" y1="310.0" x2="298.4" y2="304.5" stroke="#FFFFFF" stroke-width="1.4" opacity="0.22"></line><line x1="294.3" y1="314.0" x2="301.6" y2="310.6" stroke="#FFFFFF" stroke-width="0.9" opacity="0.12"></line><line x1="296.7" y1="319.7" x2="304.2" y2="317.0" stroke="#FFFFFF" stroke-width="0.9" opacity="0.12"></line><line x1="298.6" y1="325.6" x2="306.3" y2="323.6" stroke="#FFFFFF" stroke-width="0.9" opacity="0.12"></line><line x1="299.9" y1="331.7" x2="307.8" y2="330.3" stroke="#FFFFFF" stroke-width="0.9" opacity="0.12"></line><line x1="300.7" y1="337.8" x2="308.7" y2="337.1" stroke="#FFFFFF" stroke-width="0.9" opacity="0.12"></line><line x1="298.0" y1="344.0" x2="309.0" y2="344.0" stroke="#FFFFFF" stroke-width="1.4" opacity="0.22"></line><line x1="300.7" y1="350.2" x2="308.7" y2="350.9" stroke="#FFFFFF" stroke-width="0.9" opacity="0.12"></line><line x1="299.9" y1="356.3" x2="307.8" y2="357.7" stroke="#FFFFFF" stroke-width="0.9" opacity="0.12"></line><line x1="298.6" y1="362.4" x2="306.3" y2="364.4" stroke="#FFFFFF" stroke-width="0.9" opacity="0.12"></line><line x1="296.7" y1="368.3" x2="304.2" y2="371.0" stroke="#FFFFFF" stroke-width="0.9" opacity="0.12"></line><line x1="294.3" y1="374.0" x2="301.6" y2="377.4" stroke="#FFFFFF" stroke-width="0.9" opacity="0.12"></line><line x1="288.9" y1="378.0" x2="298.4" y2="383.5" stroke="#BEE83A" stroke-width="1.4" opacity="0.95"></line><line x1="288.2" y1="384.7" x2="294.7" y2="389.3" stroke="#BEE83A" stroke-width="0.9" opacity="0.6"></line><line x1="284.4" y1="389.6" x2="290.5" y2="394.8" stroke="#BEE83A" stroke-width="0.9" opacity="0.6"></line><line x1="280.2" y1="394.2" x2="285.9" y2="399.9" stroke="#BEE83A" stroke-width="0.9" opacity="0.6"></line><line x1="275.6" y1="398.4" x2="280.8" y2="404.5" stroke="#BEE83A" stroke-width="0.9" opacity="0.6"></line><line x1="270.7" y1="402.2" x2="275.3" y2="408.7" stroke="#BEE83A" stroke-width="0.9" opacity="0.6"></line><line x1="264.0" y1="402.9" x2="269.5" y2="412.4" stroke="#BEE83A" stroke-width="1.4" opacity="0.95"></line><line x1="260.0" y1="408.3" x2="263.4" y2="415.6" stroke="#BEE83A" stroke-width="0.9" opacity="0.6"></line><line x1="254.3" y1="410.7" x2="257.0" y2="418.2" stroke="#BEE83A" stroke-width="0.9" opacity="0.6"></line><line x1="248.4" y1="412.6" x2="250.4" y2="420.3" stroke="#BEE83A" stroke-width="0.9" opacity="0.6"></line><line x1="242.3" y1="413.9" x2="243.7" y2="421.8" stroke="#BEE83A" stroke-width="0.9" opacity="0.6"></line><line x1="236.2" y1="414.7" x2="236.9" y2="422.7" stroke="#BEE83A" stroke-width="0.9" opacity="0.6"></line><line x1="230.0" y1="412.0" x2="230.0" y2="423.0" stroke="#BEE83A" stroke-width="1.4" opacity="0.95"></line><line x1="223.8" y1="414.7" x2="223.1" y2="422.7" stroke="#BEE83A" stroke-width="0.9" opacity="0.6"></line><line x1="217.7" y1="413.9" x2="216.3" y2="421.8" stroke="#BEE83A" stroke-width="0.9" opacity="0.6"></line><line x1="211.6" y1="412.6" x2="209.6" y2="420.3" stroke="#BEE83A" stroke-width="0.9" opacity="0.6"></line><line x1="205.7" y1="410.7" x2="203.0" y2="418.2" stroke="#BEE83A" stroke-width="0.9" opacity="0.6"></line><line x1="200.0" y1="408.3" x2="196.6" y2="415.6" stroke="#BEE83A" stroke-width="0.9" opacity="0.6"></line><line x1="196.0" y1="402.9" x2="190.5" y2="412.4" stroke="#BEE83A" stroke-width="1.4" opacity="0.95"></line><line x1="189.3" y1="402.2" x2="184.7" y2="408.7" stroke="#BEE83A" stroke-width="0.9" opacity="0.6"></line><line x1="184.4" y1="398.4" x2="179.2" y2="404.5" stroke="#BEE83A" stroke-width="0.9" opacity="0.6"></line><line x1="179.8" y1="394.2" x2="174.1" y2="399.9" stroke="#BEE83A" stroke-width="0.9" opacity="0.6"></line><line x1="175.6" y1="389.6" x2="169.5" y2="394.8" stroke="#BEE83A" stroke-width="0.9" opacity="0.6"></line><line x1="171.8" y1="384.7" x2="165.3" y2="389.3" stroke="#BEE83A" stroke-width="0.9" opacity="0.6"></line><line x1="171.1" y1="378.0" x2="161.6" y2="383.5" stroke="#BEE83A" stroke-width="1.4" opacity="0.95"></line><line x1="165.7" y1="374.0" x2="158.4" y2="377.4" stroke="#FFFFFF" stroke-width="0.9" opacity="0.12"></line><line x1="163.3" y1="368.3" x2="155.8" y2="371.0" stroke="#FFFFFF" stroke-width="0.9" opacity="0.12"></line><line x1="161.4" y1="362.4" x2="153.7" y2="364.4" stroke="#FFFFFF" stroke-width="0.9" opacity="0.12"></line><line x1="160.1" y1="356.3" x2="152.2" y2="357.7" stroke="#FFFFFF" stroke-width="0.9" opacity="0.12"></line><line x1="159.3" y1="350.2" x2="151.3" y2="350.9" stroke="#FFFFFF" stroke-width="0.9" opacity="0.12"></line><line x1="162.0" y1="344.0" x2="151.0" y2="344.0" stroke="#FFFFFF" stroke-width="1.4" opacity="0.22"></line><line x1="159.3" y1="337.8" x2="151.3" y2="337.1" stroke="#FFFFFF" stroke-width="0.9" opacity="0.12"></line><line x1="160.1" y1="331.7" x2="152.2" y2="330.3" stroke="#FFFFFF" stroke-width="0.9" opacity="0.12"></line><line x1="161.4" y1="325.6" x2="153.7" y2="323.6" stroke="#FFFFFF" stroke-width="0.9" opacity="0.12"></line><line x1="163.3" y1="319.7" x2="155.8" y2="317.0" stroke="#FFFFFF" stroke-width="0.9" opacity="0.12"></line><line x1="165.7" y1="314.0" x2="158.4" y2="310.6" stroke="#FFFFFF" stroke-width="0.9" opacity="0.12"></line><line x1="171.1" y1="310.0" x2="161.6" y2="304.5" stroke="#FFFFFF" stroke-width="1.4" opacity="0.22"></line><line x1="171.8" y1="303.3" x2="165.3" y2="298.7" stroke="#FFFFFF" stroke-width="0.9" opacity="0.12"></line><line x1="175.6" y1="298.4" x2="169.5" y2="293.2" stroke="#FFFFFF" stroke-width="0.9" opacity="0.12"></line><line x1="179.8" y1="293.8" x2="174.1" y2="288.1" stroke="#FFFFFF" stroke-width="0.9" opacity="0.12"></line><line x1="184.4" y1="289.6" x2="179.2" y2="283.5" stroke="#FFFFFF" stroke-width="0.9" opacity="0.12"></line><line x1="189.3" y1="285.8" x2="184.7" y2="279.3" stroke="#FFFFFF" stroke-width="0.9" opacity="0.12"></line><line x1="196.0" y1="285.1" x2="190.5" y2="275.6" stroke="#FFFFFF" stroke-width="1.4" opacity="0.22"></line><line x1="200.0" y1="279.7" x2="196.6" y2="272.4" stroke="#FFFFFF" stroke-width="0.9" opacity="0.12"></line><line x1="205.7" y1="277.3" x2="203.0" y2="269.8" stroke="#FFFFFF" stroke-width="0.9" opacity="0.12"></line><line x1="211.6" y1="275.4" x2="209.6" y2="267.7" stroke="#FFFFFF" stroke-width="0.9" opacity="0.12"></line><line x1="217.7" y1="274.1" x2="216.3" y2="266.2" stroke="#FFFFFF" stroke-width="0.9" opacity="0.12"></line><line x1="223.8" y1="273.3" x2="223.1" y2="265.3" stroke="#FFFFFF" stroke-width="0.9" opacity="0.12"></line><path d="M298.42,383.50 A79,79 0 0 1 161.58,383.50" fill="none" stroke="#BEE83A" stroke-width="2.2" opacity="0.95" stroke-linecap="round"></path><g transform="translate(230,331) scale(1.2)"><path d="M-3.5,-6 L-10,0 L-3.5,6 M3.5,-6 L10,0 L3.5,6 M2.6,-8 L-2.6,8" fill="none" stroke="#EDEFF1" stroke-width="1.8" stroke-linecap="round" stroke-linejoin="round"></path></g><text x="230" y="363" text-anchor="middle" font-family="&#39;Space Grotesk&#39;,sans-serif" font-weight="600" font-size="15" letter-spacing="1.5" fill="#F1F2F4">CODE</text><text x="230" y="378" text-anchor="middle" font-family="&#39;Space Grotesk&#39;,sans-serif" font-weight="600" font-size="5.5" letter-spacing="0.6" fill="#BEE83A">BUILD · AUTOMATE · SCALE</text><path d="M390.48,142.59 A99,99 0 0 1 390.48,317.41" fill="none" stroke="#FF6B2C" stroke-width="1.2" opacity="0.9" stroke-linecap="round"></path><circle cx="344" cy="230" r="95" fill="#17191e" stroke="rgba(255,255,255,.05)" stroke-width="1"></circle><circle cx="344" cy="230" r="94" fill="none" stroke="rgba(0,0,0,.6)" stroke-width="2"></circle><circle cx="344" cy="230" r="84" fill="#0c0d10" stroke="rgba(255,255,255,.04)" stroke-width="1"></circle><line x1="344.0" y1="162.0" x2="344.0" y2="151.0" stroke="#FFFFFF" stroke-width="1.4" opacity="0.22"></line><line x1="350.2" y1="159.3" x2="350.9" y2="151.3" stroke="#FFFFFF" stroke-width="0.9" opacity="0.12"></line><line x1="356.3" y1="160.1" x2="357.7" y2="152.2" stroke="#FFFFFF" stroke-width="0.9" opacity="0.12"></line><line x1="362.4" y1="161.4" x2="364.4" y2="153.7" stroke="#FFFFFF" stroke-width="0.9" opacity="0.12"></line><line x1="368.3" y1="163.3" x2="371.0" y2="155.8" stroke="#FFFFFF" stroke-width="0.9" opacity="0.12"></line><line x1="374.0" y1="165.7" x2="377.4" y2="158.4" stroke="#FFFFFF" stroke-width="0.9" opacity="0.12"></line><line x1="378.0" y1="171.1" x2="383.5" y2="161.6" stroke="#FF6B2C" stroke-width="1.4" opacity="0.95"></line><line x1="384.7" y1="171.8" x2="389.3" y2="165.3" stroke="#FF6B2C" stroke-width="0.9" opacity="0.6"></line><line x1="389.6" y1="175.6" x2="394.8" y2="169.5" stroke="#FF6B2C" stroke-width="0.9" opacity="0.6"></line><line x1="394.2" y1="179.8" x2="399.9" y2="174.1" stroke="#FF6B2C" stroke-width="0.9" opacity="0.6"></line><line x1="398.4" y1="184.4" x2="404.5" y2="179.2" stroke="#FF6B2C" stroke-width="0.9" opacity="0.6"></line><line x1="402.2" y1="189.3" x2="408.7" y2="184.7" stroke="#FF6B2C" stroke-width="0.9" opacity="0.6"></line><line x1="402.9" y1="196.0" x2="412.4" y2="190.5" stroke="#FF6B2C" stroke-width="1.4" opacity="0.95"></line><line x1="408.3" y1="200.0" x2="415.6" y2="196.6" stroke="#FF6B2C" stroke-width="0.9" opacity="0.6"></line><line x1="410.7" y1="205.7" x2="418.2" y2="203.0" stroke="#FF6B2C" stroke-width="0.9" opacity="0.6"></line><line x1="412.6" y1="211.6" x2="420.3" y2="209.6" stroke="#FF6B2C" stroke-width="0.9" opacity="0.6"></line><line x1="413.9" y1="217.7" x2="421.8" y2="216.3" stroke="#FF6B2C" stroke-width="0.9" opacity="0.6"></line><line x1="414.7" y1="223.8" x2="422.7" y2="223.1" stroke="#FF6B2C" stroke-width="0.9" opacity="0.6"></line><line x1="412.0" y1="230.0" x2="423.0" y2="230.0" stroke="#FF6B2C" stroke-width="1.4" opacity="0.95"></line><line x1="414.7" y1="236.2" x2="422.7" y2="236.9" stroke="#FF6B2C" stroke-width="0.9" opacity="0.6"></line><line x1="413.9" y1="242.3" x2="421.8" y2="243.7" stroke="#FF6B2C" stroke-width="0.9" opacity="0.6"></line><line x1="412.6" y1="248.4" x2="420.3" y2="250.4" stroke="#FF6B2C" stroke-width="0.9" opacity="0.6"></line><line x1="410.7" y1="254.3" x2="418.2" y2="257.0" stroke="#FF6B2C" stroke-width="0.9" opacity="0.6"></line><line x1="408.3" y1="260.0" x2="415.6" y2="263.4" stroke="#FF6B2C" stroke-width="0.9" opacity="0.6"></line><line x1="402.9" y1="264.0" x2="412.4" y2="269.5" stroke="#FF6B2C" stroke-width="1.4" opacity="0.95"></line><line x1="402.2" y1="270.7" x2="408.7" y2="275.3" stroke="#FF6B2C" stroke-width="0.9" opacity="0.6"></line><line x1="398.4" y1="275.6" x2="404.5" y2="280.8" stroke="#FF6B2C" stroke-width="0.9" opacity="0.6"></line><line x1="394.2" y1="280.2" x2="399.9" y2="285.9" stroke="#FF6B2C" stroke-width="0.9" opacity="0.6"></line><line x1="389.6" y1="284.4" x2="394.8" y2="290.5" stroke="#FF6B2C" stroke-width="0.9" opacity="0.6"></line><line x1="384.7" y1="288.2" x2="389.3" y2="294.7" stroke="#FF6B2C" stroke-width="0.9" opacity="0.6"></line><line x1="378.0" y1="288.9" x2="383.5" y2="298.4" stroke="#FF6B2C" stroke-width="1.4" opacity="0.95"></line><line x1="374.0" y1="294.3" x2="377.4" y2="301.6" stroke="#FFFFFF" stroke-width="0.9" opacity="0.12"></line><line x1="368.3" y1="296.7" x2="371.0" y2="304.2" stroke="#FFFFFF" stroke-width="0.9" opacity="0.12"></line><line x1="362.4" y1="298.6" x2="364.4" y2="306.3" stroke="#FFFFFF" stroke-width="0.9" opacity="0.12"></line><line x1="356.3" y1="299.9" x2="357.7" y2="307.8" stroke="#FFFFFF" stroke-width="0.9" opacity="0.12"></line><line x1="350.2" y1="300.7" x2="350.9" y2="308.7" stroke="#FFFFFF" stroke-width="0.9" opacity="0.12"></line><line x1="344.0" y1="298.0" x2="344.0" y2="309.0" stroke="#FFFFFF" stroke-width="1.4" opacity="0.22"></line><line x1="337.8" y1="300.7" x2="337.1" y2="308.7" stroke="#FFFFFF" stroke-width="0.9" opacity="0.12"></line><line x1="331.7" y1="299.9" x2="330.3" y2="307.8" stroke="#FFFFFF" stroke-width="0.9" opacity="0.12"></line><line x1="325.6" y1="298.6" x2="323.6" y2="306.3" stroke="#FFFFFF" stroke-width="0.9" opacity="0.12"></line><line x1="319.7" y1="296.7" x2="317.0" y2="304.2" stroke="#FFFFFF" stroke-width="0.9" opacity="0.12"></line><line x1="314.0" y1="294.3" x2="310.6" y2="301.6" stroke="#FFFFFF" stroke-width="0.9" opacity="0.12"></line><line x1="310.0" y1="288.9" x2="304.5" y2="298.4" stroke="#FFFFFF" stroke-width="1.4" opacity="0.22"></line><line x1="303.3" y1="288.2" x2="298.7" y2="294.7" stroke="#FFFFFF" stroke-width="0.9" opacity="0.12"></line><line x1="298.4" y1="284.4" x2="293.2" y2="290.5" stroke="#FFFFFF" stroke-width="0.9" opacity="0.12"></line><line x1="293.8" y1="280.2" x2="288.1" y2="285.9" stroke="#FFFFFF" stroke-width="0.9" opacity="0.12"></line><line x1="289.6" y1="275.6" x2="283.5" y2="280.8" stroke="#FFFFFF" stroke-width="0.9" opacity="0.12"></line><line x1="285.8" y1="270.7" x2="279.3" y2="275.3" stroke="#FFFFFF" stroke-width="0.9" opacity="0.12"></line><line x1="285.1" y1="264.0" x2="275.6" y2="269.5" stroke="#FFFFFF" stroke-width="1.4" opacity="0.22"></line><line x1="279.7" y1="260.0" x2="272.4" y2="263.4" stroke="#FFFFFF" stroke-width="0.9" opacity="0.12"></line><line x1="277.3" y1="254.3" x2="269.8" y2="257.0" stroke="#FFFFFF" stroke-width="0.9" opacity="0.12"></line><line x1="275.4" y1="248.4" x2="267.7" y2="250.4" stroke="#FFFFFF" stroke-width="0.9" opacity="0.12"></line><line x1="274.1" y1="242.3" x2="266.2" y2="243.7" stroke="#FFFFFF" stroke-width="0.9" opacity="0.12"></line><line x1="273.3" y1="236.2" x2="265.3" y2="236.9" stroke="#FFFFFF" stroke-width="0.9" opacity="0.12"></line><line x1="276.0" y1="230.0" x2="265.0" y2="230.0" stroke="#FFFFFF" stroke-width="1.4" opacity="0.22"></line><line x1="273.3" y1="223.8" x2="265.3" y2="223.1" stroke="#FFFFFF" stroke-width="0.9" opacity="0.12"></line><line x1="274.1" y1="217.7" x2="266.2" y2="216.3" stroke="#FFFFFF" stroke-width="0.9" opacity="0.12"></line><line x1="275.4" y1="211.6" x2="267.7" y2="209.6" stroke="#FFFFFF" stroke-width="0.9" opacity="0.12"></line><line x1="277.3" y1="205.7" x2="269.8" y2="203.0" stroke="#FFFFFF" stroke-width="0.9" opacity="0.12"></line><line x1="279.7" y1="200.0" x2="272.4" y2="196.6" stroke="#FFFFFF" stroke-width="0.9" opacity="0.12"></line><line x1="285.1" y1="196.0" x2="275.6" y2="190.5" stroke="#FFFFFF" stroke-width="1.4" opacity="0.22"></line><line x1="285.8" y1="189.3" x2="279.3" y2="184.7" stroke="#FFFFFF" stroke-width="0.9" opacity="0.12"></line><line x1="289.6" y1="184.4" x2="283.5" y2="179.2" stroke="#FFFFFF" stroke-width="0.9" opacity="0.12"></line><line x1="293.8" y1="179.8" x2="288.1" y2="174.1" stroke="#FFFFFF" stroke-width="0.9" opacity="0.12"></line><line x1="298.4" y1="175.6" x2="293.2" y2="169.5" stroke="#FFFFFF" stroke-width="0.9" opacity="0.12"></line><line x1="303.3" y1="171.8" x2="298.7" y2="165.3" stroke="#FFFFFF" stroke-width="0.9" opacity="0.12"></line><line x1="310.0" y1="171.1" x2="304.5" y2="161.6" stroke="#FFFFFF" stroke-width="1.4" opacity="0.22"></line><line x1="314.0" y1="165.7" x2="310.6" y2="158.4" stroke="#FFFFFF" stroke-width="0.9" opacity="0.12"></line><line x1="319.7" y1="163.3" x2="317.0" y2="155.8" stroke="#FFFFFF" stroke-width="0.9" opacity="0.12"></line><line x1="325.6" y1="161.4" x2="323.6" y2="153.7" stroke="#FFFFFF" stroke-width="0.9" opacity="0.12"></line><line x1="331.7" y1="160.1" x2="330.3" y2="152.2" stroke="#FFFFFF" stroke-width="0.9" opacity="0.12"></line><line x1="337.8" y1="159.3" x2="337.1" y2="151.3" stroke="#FFFFFF" stroke-width="0.9" opacity="0.12"></line><path d="M383.50,161.58 A79,79 0 0 1 383.50,298.42" fill="none" stroke="#FF6B2C" stroke-width="2.2" opacity="0.95" stroke-linecap="round"></path><g transform="translate(352,205) scale(1.2)"><path d="M-6,0 L6,-7 M-6,0 L6,7" stroke="#EDEFF1" stroke-width="1.5" fill="none"></path><circle cx="-6" cy="0" r="2.8" fill="#EDEFF1"></circle><circle cx="6" cy="-7" r="2.8" fill="#EDEFF1"></circle><circle cx="6" cy="7" r="2.8" fill="#EDEFF1"></circle></g><text x="352" y="237" text-anchor="middle" font-family="&#39;Space Grotesk&#39;,sans-serif" font-weight="600" font-size="15" letter-spacing="1.5" fill="#F1F2F4">CONNECT</text><text x="352" y="252" text-anchor="middle" font-family="&#39;Space Grotesk&#39;,sans-serif" font-weight="600" font-size="5.5" letter-spacing="0.6" fill="#FF6B2C">REACH · ENGAGE · GROW</text><path d="M142.59,69.52 A99,99 0 0 1 317.41,69.52" fill="none" stroke="#17D4D4" stroke-width="1.2" opacity="0.9" stroke-linecap="round"></path><circle cx="230" cy="116" r="95" fill="#17191e" stroke="rgba(255,255,255,.05)" stroke-width="1"></circle><circle cx="230" cy="116" r="94" fill="none" stroke="rgba(0,0,0,.6)" stroke-width="2"></circle><circle cx="230" cy="116" r="84" fill="#0c0d10" stroke="rgba(255,255,255,.04)" stroke-width="1"></circle><line x1="230.0" y1="48.0" x2="230.0" y2="37.0" stroke="#17D4D4" stroke-width="1.4" opacity="0.95"></line><line x1="236.2" y1="45.3" x2="236.9" y2="37.3" stroke="#17D4D4" stroke-width="0.9" opacity="0.6"></line><line x1="242.3" y1="46.1" x2="243.7" y2="38.2" stroke="#17D4D4" stroke-width="0.9" opacity="0.6"></line><line x1="248.4" y1="47.4" x2="250.4" y2="39.7" stroke="#17D4D4" stroke-width="0.9" opacity="0.6"></line><line x1="254.3" y1="49.3" x2="257.0" y2="41.8" stroke="#17D4D4" stroke-width="0.9" opacity="0.6"></line><line x1="260.0" y1="51.7" x2="263.4" y2="44.4" stroke="#17D4D4" stroke-width="0.9" opacity="0.6"></line><line x1="264.0" y1="57.1" x2="269.5" y2="47.6" stroke="#17D4D4" stroke-width="1.4" opacity="0.95"></line><line x1="270.7" y1="57.8" x2="275.3" y2="51.3" stroke="#17D4D4" stroke-width="0.9" opacity="0.6"></line><line x1="275.6" y1="61.6" x2="280.8" y2="55.5" stroke="#17D4D4" stroke-width="0.9" opacity="0.6"></line><line x1="280.2" y1="65.8" x2="285.9" y2="60.1" stroke="#17D4D4" stroke-width="0.9" opacity="0.6"></line><line x1="284.4" y1="70.4" x2="290.5" y2="65.2" stroke="#17D4D4" stroke-width="0.9" opacity="0.6"></line><line x1="288.2" y1="75.3" x2="294.7" y2="70.7" stroke="#17D4D4" stroke-width="0.9" opacity="0.6"></line><line x1="288.9" y1="82.0" x2="298.4" y2="76.5" stroke="#17D4D4" stroke-width="1.4" opacity="0.95"></line><line x1="294.3" y1="86.0" x2="301.6" y2="82.6" stroke="#FFFFFF" stroke-width="0.9" opacity="0.12"></line><line x1="296.7" y1="91.7" x2="304.2" y2="89.0" stroke="#FFFFFF" stroke-width="0.9" opacity="0.12"></line><line x1="298.6" y1="97.6" x2="306.3" y2="95.6" stroke="#FFFFFF" stroke-width="0.9" opacity="0.12"></line><line x1="299.9" y1="103.7" x2="307.8" y2="102.3" stroke="#FFFFFF" stroke-width="0.9" opacity="0.12"></line><line x1="300.7" y1="109.8" x2="308.7" y2="109.1" stroke="#FFFFFF" stroke-width="0.9" opacity="0.12"></line><line x1="298.0" y1="116.0" x2="309.0" y2="116.0" stroke="#FFFFFF" stroke-width="1.4" opacity="0.22"></line><line x1="300.7" y1="122.2" x2="308.7" y2="122.9" stroke="#FFFFFF" stroke-width="0.9" opacity="0.12"></line><line x1="299.9" y1="128.3" x2="307.8" y2="129.7" stroke="#FFFFFF" stroke-width="0.9" opacity="0.12"></line><line x1="298.6" y1="134.4" x2="306.3" y2="136.4" stroke="#FFFFFF" stroke-width="0.9" opacity="0.12"></line><line x1="296.7" y1="140.3" x2="304.2" y2="143.0" stroke="#FFFFFF" stroke-width="0.9" opacity="0.12"></line><line x1="294.3" y1="146.0" x2="301.6" y2="149.4" stroke="#FFFFFF" stroke-width="0.9" opacity="0.12"></line><line x1="288.9" y1="150.0" x2="298.4" y2="155.5" stroke="#FFFFFF" stroke-width="1.4" opacity="0.22"></line><line x1="288.2" y1="156.7" x2="294.7" y2="161.3" stroke="#FFFFFF" stroke-width="0.9" opacity="0.12"></line><line x1="284.4" y1="161.6" x2="290.5" y2="166.8" stroke="#FFFFFF" stroke-width="0.9" opacity="0.12"></line><line x1="280.2" y1="166.2" x2="285.9" y2="171.9" stroke="#FFFFFF" stroke-width="0.9" opacity="0.12"></line><line x1="275.6" y1="170.4" x2="280.8" y2="176.5" stroke="#FFFFFF" stroke-width="0.9" opacity="0.12"></line><line x1="270.7" y1="174.2" x2="275.3" y2="180.7" stroke="#FFFFFF" stroke-width="0.9" opacity="0.12"></line><line x1="264.0" y1="174.9" x2="269.5" y2="184.4" stroke="#FFFFFF" stroke-width="1.4" opacity="0.22"></line><line x1="260.0" y1="180.3" x2="263.4" y2="187.6" stroke="#FFFFFF" stroke-width="0.9" opacity="0.12"></line><line x1="254.3" y1="182.7" x2="257.0" y2="190.2" stroke="#FFFFFF" stroke-width="0.9" opacity="0.12"></line><line x1="248.4" y1="184.6" x2="250.4" y2="192.3" stroke="#FFFFFF" stroke-width="0.9" opacity="0.12"></line><line x1="242.3" y1="185.9" x2="243.7" y2="193.8" stroke="#FFFFFF" stroke-width="0.9" opacity="0.12"></line><line x1="236.2" y1="186.7" x2="236.9" y2="194.7" stroke="#FFFFFF" stroke-width="0.9" opacity="0.12"></line><line x1="230.0" y1="184.0" x2="230.0" y2="195.0" stroke="#FFFFFF" stroke-width="1.4" opacity="0.22"></line><line x1="223.8" y1="186.7" x2="223.1" y2="194.7" stroke="#FFFFFF" stroke-width="0.9" opacity="0.12"></line><line x1="217.7" y1="185.9" x2="216.3" y2="193.8" stroke="#FFFFFF" stroke-width="0.9" opacity="0.12"></line><line x1="211.6" y1="184.6" x2="209.6" y2="192.3" stroke="#FFFFFF" stroke-width="0.9" opacity="0.12"></line><line x1="205.7" y1="182.7" x2="203.0" y2="190.2" stroke="#FFFFFF" stroke-width="0.9" opacity="0.12"></line><line x1="200.0" y1="180.3" x2="196.6" y2="187.6" stroke="#FFFFFF" stroke-width="0.9" opacity="0.12"></line><line x1="196.0" y1="174.9" x2="190.5" y2="184.4" stroke="#FFFFFF" stroke-width="1.4" opacity="0.22"></line><line x1="189.3" y1="174.2" x2="184.7" y2="180.7" stroke="#FFFFFF" stroke-width="0.9" opacity="0.12"></line><line x1="184.4" y1="170.4" x2="179.2" y2="176.5" stroke="#FFFFFF" stroke-width="0.9" opacity="0.12"></line><line x1="179.8" y1="166.2" x2="174.1" y2="171.9" stroke="#FFFFFF" stroke-width="0.9" opacity="0.12"></line><line x1="175.6" y1="161.6" x2="169.5" y2="166.8" stroke="#FFFFFF" stroke-width="0.9" opacity="0.12"></line><line x1="171.8" y1="156.7" x2="165.3" y2="161.3" stroke="#FFFFFF" stroke-width="0.9" opacity="0.12"></line><line x1="171.1" y1="150.0" x2="161.6" y2="155.5" stroke="#FFFFFF" stroke-width="1.4" opacity="0.22"></line><line x1="165.7" y1="146.0" x2="158.4" y2="149.4" stroke="#FFFFFF" stroke-width="0.9" opacity="0.12"></line><line x1="163.3" y1="140.3" x2="155.8" y2="143.0" stroke="#FFFFFF" stroke-width="0.9" opacity="0.12"></line><line x1="161.4" y1="134.4" x2="153.7" y2="136.4" stroke="#FFFFFF" stroke-width="0.9" opacity="0.12"></line><line x1="160.1" y1="128.3" x2="152.2" y2="129.7" stroke="#FFFFFF" stroke-width="0.9" opacity="0.12"></line><line x1="159.3" y1="122.2" x2="151.3" y2="122.9" stroke="#FFFFFF" stroke-width="0.9" opacity="0.12"></line><line x1="162.0" y1="116.0" x2="151.0" y2="116.0" stroke="#FFFFFF" stroke-width="1.4" opacity="0.22"></line><line x1="159.3" y1="109.8" x2="151.3" y2="109.1" stroke="#FFFFFF" stroke-width="0.9" opacity="0.12"></line><line x1="160.1" y1="103.7" x2="152.2" y2="102.3" stroke="#FFFFFF" stroke-width="0.9" opacity="0.12"></line><line x1="161.4" y1="97.6" x2="153.7" y2="95.6" stroke="#FFFFFF" stroke-width="0.9" opacity="0.12"></line><line x1="163.3" y1="91.7" x2="155.8" y2="89.0" stroke="#FFFFFF" stroke-width="0.9" opacity="0.12"></line><line x1="165.7" y1="86.0" x2="158.4" y2="82.6" stroke="#FFFFFF" stroke-width="0.9" opacity="0.12"></line><line x1="171.1" y1="82.0" x2="161.6" y2="76.5" stroke="#17D4D4" stroke-width="1.4" opacity="0.95"></line><line x1="171.8" y1="75.3" x2="165.3" y2="70.7" stroke="#17D4D4" stroke-width="0.9" opacity="0.6"></line><line x1="175.6" y1="70.4" x2="169.5" y2="65.2" stroke="#17D4D4" stroke-width="0.9" opacity="0.6"></line><line x1="179.8" y1="65.8" x2="174.1" y2="60.1" stroke="#17D4D4" stroke-width="0.9" opacity="0.6"></line><line x1="184.4" y1="61.6" x2="179.2" y2="55.5" stroke="#17D4D4" stroke-width="0.9" opacity="0.6"></line><line x1="189.3" y1="57.8" x2="184.7" y2="51.3" stroke="#17D4D4" stroke-width="0.9" opacity="0.6"></line><line x1="196.0" y1="57.1" x2="190.5" y2="47.6" stroke="#17D4D4" stroke-width="1.4" opacity="0.95"></line><line x1="200.0" y1="51.7" x2="196.6" y2="44.4" stroke="#17D4D4" stroke-width="0.9" opacity="0.6"></line><line x1="205.7" y1="49.3" x2="203.0" y2="41.8" stroke="#17D4D4" stroke-width="0.9" opacity="0.6"></line><line x1="211.6" y1="47.4" x2="209.6" y2="39.7" stroke="#17D4D4" stroke-width="0.9" opacity="0.6"></line><line x1="217.7" y1="46.1" x2="216.3" y2="38.2" stroke="#17D4D4" stroke-width="0.9" opacity="0.6"></line><line x1="223.8" y1="45.3" x2="223.1" y2="37.3" stroke="#17D4D4" stroke-width="0.9" opacity="0.6"></line><path d="M161.58,76.50 A79,79 0 0 1 298.42,76.50" fill="none" stroke="#17D4D4" stroke-width="2.2" opacity="0.95" stroke-linecap="round"></path><g transform="translate(230,79) scale(1.2)"><path d="M0,-11 L2.8,-2.8 L11,0 L2.8,2.8 L0,11 L-2.8,2.8 L-11,0 L-2.8,-2.8 Z" fill="#EDEFF1"></path></g><text x="230" y="111" text-anchor="middle" font-family="&#39;Space Grotesk&#39;,sans-serif" font-weight="600" font-size="15" letter-spacing="1.5" fill="#F1F2F4">CREATIVE</text><text x="230" y="126" text-anchor="middle" font-family="&#39;Space Grotesk&#39;,sans-serif" font-weight="600" font-size="5.5" letter-spacing="0.6" fill="#17D4D4">IDEA · DESIGN · EXPERIENCE</text><circle cx="230" cy="230" r="60" fill="#0b0c0f"></circle><line x1="230.0" y1="181.0" x2="230.0" y2="176.0" stroke="rgba(255,255,255,.12)" stroke-width="1"></line><line x1="235.7" y1="181.3" x2="236.3" y2="176.4" stroke="rgba(255,255,255,.12)" stroke-width="1"></line><line x1="241.3" y1="182.3" x2="242.5" y2="177.5" stroke="rgba(255,255,255,.12)" stroke-width="1"></line><line x1="246.8" y1="184.0" x2="248.5" y2="179.3" stroke="rgba(255,255,255,.12)" stroke-width="1"></line><line x1="252.0" y1="186.2" x2="254.2" y2="181.7" stroke="rgba(255,255,255,.12)" stroke-width="1"></line><line x1="256.9" y1="189.1" x2="259.7" y2="184.9" stroke="rgba(255,255,255,.12)" stroke-width="1"></line><line x1="261.5" y1="192.5" x2="264.7" y2="188.6" stroke="rgba(255,255,255,.12)" stroke-width="1"></line><line x1="265.6" y1="196.4" x2="269.3" y2="192.9" stroke="rgba(255,255,255,.12)" stroke-width="1"></line><line x1="269.3" y1="200.7" x2="273.3" y2="197.8" stroke="rgba(255,255,255,.12)" stroke-width="1"></line><line x1="272.4" y1="205.5" x2="276.8" y2="203.0" stroke="rgba(255,255,255,.12)" stroke-width="1"></line><line x1="275.0" y1="210.6" x2="279.6" y2="208.6" stroke="rgba(255,255,255,.12)" stroke-width="1"></line><line x1="276.9" y1="215.9" x2="281.7" y2="214.5" stroke="rgba(255,255,255,.12)" stroke-width="1"></line><line x1="278.3" y1="221.5" x2="283.2" y2="220.6" stroke="rgba(255,255,255,.12)" stroke-width="1"></line><line x1="278.9" y1="227.2" x2="283.9" y2="226.9" stroke="rgba(255,255,255,.12)" stroke-width="1"></line><line x1="278.9" y1="232.8" x2="283.9" y2="233.1" stroke="rgba(255,255,255,.12)" stroke-width="1"></line><line x1="278.3" y1="238.5" x2="283.2" y2="239.4" stroke="rgba(255,255,255,.12)" stroke-width="1"></line><line x1="276.9" y1="244.1" x2="281.7" y2="245.5" stroke="rgba(255,255,255,.12)" stroke-width="1"></line><line x1="275.0" y1="249.4" x2="279.6" y2="251.4" stroke="rgba(255,255,255,.12)" stroke-width="1"></line><line x1="272.4" y1="254.5" x2="276.8" y2="257.0" stroke="rgba(255,255,255,.12)" stroke-width="1"></line><line x1="269.3" y1="259.3" x2="273.3" y2="262.2" stroke="rgba(255,255,255,.12)" stroke-width="1"></line><line x1="265.6" y1="263.6" x2="269.3" y2="267.1" stroke="rgba(255,255,255,.12)" stroke-width="1"></line><line x1="261.5" y1="267.5" x2="264.7" y2="271.4" stroke="rgba(255,255,255,.12)" stroke-width="1"></line><line x1="256.9" y1="270.9" x2="259.7" y2="275.1" stroke="rgba(255,255,255,.12)" stroke-width="1"></line><line x1="252.0" y1="273.8" x2="254.2" y2="278.3" stroke="rgba(255,255,255,.12)" stroke-width="1"></line><line x1="246.8" y1="276.0" x2="248.5" y2="280.7" stroke="rgba(255,255,255,.12)" stroke-width="1"></line><line x1="241.3" y1="277.7" x2="242.5" y2="282.5" stroke="rgba(255,255,255,.12)" stroke-width="1"></line><line x1="235.7" y1="278.7" x2="236.3" y2="283.6" stroke="rgba(255,255,255,.12)" stroke-width="1"></line><line x1="230.0" y1="279.0" x2="230.0" y2="284.0" stroke="rgba(255,255,255,.12)" stroke-width="1"></line><line x1="224.3" y1="278.7" x2="223.7" y2="283.6" stroke="rgba(255,255,255,.12)" stroke-width="1"></line><line x1="218.7" y1="277.7" x2="217.5" y2="282.5" stroke="rgba(255,255,255,.12)" stroke-width="1"></line><line x1="213.2" y1="276.0" x2="211.5" y2="280.7" stroke="rgba(255,255,255,.12)" stroke-width="1"></line><line x1="208.0" y1="273.8" x2="205.8" y2="278.3" stroke="rgba(255,255,255,.12)" stroke-width="1"></line><line x1="203.1" y1="270.9" x2="200.3" y2="275.1" stroke="rgba(255,255,255,.12)" stroke-width="1"></line><line x1="198.5" y1="267.5" x2="195.3" y2="271.4" stroke="rgba(255,255,255,.12)" stroke-width="1"></line><line x1="194.4" y1="263.6" x2="190.7" y2="267.1" stroke="rgba(255,255,255,.12)" stroke-width="1"></line><line x1="190.7" y1="259.3" x2="186.7" y2="262.2" stroke="rgba(255,255,255,.12)" stroke-width="1"></line><line x1="187.6" y1="254.5" x2="183.2" y2="257.0" stroke="rgba(255,255,255,.12)" stroke-width="1"></line><line x1="185.0" y1="249.4" x2="180.4" y2="251.4" stroke="rgba(255,255,255,.12)" stroke-width="1"></line><line x1="183.1" y1="244.1" x2="178.3" y2="245.5" stroke="rgba(255,255,255,.12)" stroke-width="1"></line><line x1="181.7" y1="238.5" x2="176.8" y2="239.4" stroke="rgba(255,255,255,.12)" stroke-width="1"></line><line x1="181.1" y1="232.8" x2="176.1" y2="233.1" stroke="rgba(255,255,255,.12)" stroke-width="1"></line><line x1="181.1" y1="227.2" x2="176.1" y2="226.9" stroke="rgba(255,255,255,.12)" stroke-width="1"></line><line x1="181.7" y1="221.5" x2="176.8" y2="220.6" stroke="rgba(255,255,255,.12)" stroke-width="1"></line><line x1="183.1" y1="215.9" x2="178.3" y2="214.5" stroke="rgba(255,255,255,.12)" stroke-width="1"></line><line x1="185.0" y1="210.6" x2="180.4" y2="208.6" stroke="rgba(255,255,255,.12)" stroke-width="1"></line><line x1="187.6" y1="205.5" x2="183.2" y2="203.0" stroke="rgba(255,255,255,.12)" stroke-width="1"></line><line x1="190.7" y1="200.7" x2="186.7" y2="197.8" stroke="rgba(255,255,255,.12)" stroke-width="1"></line><line x1="194.4" y1="196.4" x2="190.7" y2="192.9" stroke="rgba(255,255,255,.12)" stroke-width="1"></line><line x1="198.5" y1="192.5" x2="195.3" y2="188.6" stroke="rgba(255,255,255,.12)" stroke-width="1"></line><line x1="203.1" y1="189.1" x2="200.3" y2="184.9" stroke="rgba(255,255,255,.12)" stroke-width="1"></line><line x1="208.0" y1="186.2" x2="205.8" y2="181.7" stroke="rgba(255,255,255,.12)" stroke-width="1"></line><line x1="213.2" y1="184.0" x2="211.5" y2="179.3" stroke="rgba(255,255,255,.12)" stroke-width="1"></line><line x1="218.7" y1="182.3" x2="217.5" y2="177.5" stroke="rgba(255,255,255,.12)" stroke-width="1"></line><line x1="224.3" y1="181.3" x2="223.7" y2="176.4" stroke="rgba(255,255,255,.12)" stroke-width="1"></line><circle cx="230" cy="230" r="54" fill="#141619"></circle><path d="M239.98,183.05 A48,48 0 0 1 276.95,220.02" fill="none" stroke="rgba(255,255,255,.12)" stroke-width="0.8"></path><path d="M276.95,239.98 A48,48 0 0 1 239.98,276.95" fill="none" stroke="rgba(255,255,255,.12)" stroke-width="0.8"></path><path d="M220.02,276.95 A48,48 0 0 1 183.05,239.98" fill="none" stroke="rgba(255,255,255,.12)" stroke-width="0.8"></path><path d="M183.05,220.02 A48,48 0 0 1 220.02,183.05" fill="none" stroke="rgba(255,255,255,.12)" stroke-width="0.8"></path><circle cx="230.0" cy="182.0" r="2.8" fill="#17D4D4"></circle><circle cx="278.0" cy="230.0" r="2.8" fill="#FF6B2C"></circle><circle cx="230.0" cy="278.0" r="2.8" fill="#BEE83A"></circle><circle cx="182.0" cy="230.0" r="2.8" fill="#FF2D8E"></circle><circle cx="230" cy="230" r="40" fill="#0a0b0e" stroke="rgba(255,255,255,.05)" stroke-width="1"></circle><g transform="translate(200,200) scale(0.448)" fill="#F4F5F7"><path d="M9.62,93.54C3.22,87.27.02,78.3.02,66.64s3.18-20.2,9.55-26.4c6.37-6.2,15.48-9.3,27.35-9.3,9.67,0,17.53,2.03,23.6,6.1,6.07,4.07,9.67,9.73,10.8,17h-9c-1.13-5.73-3.9-10.22-8.3-13.45-4.4-3.23-9.94-4.85-16.6-4.85-8.67,0-15.32,2.67-19.95,8-4.63,5.33-6.95,12.97-6.95,22.9s2.33,17.92,7,23.35c4.67,5.43,11.37,8.15,20.1,8.15,6.67,0,12.17-1.6,16.5-4.8,4.33-3.2,7.07-7.7,8.2-13.5h9c-1.13,7.27-4.73,12.93-10.8,17-6.07,4.07-13.87,6.1-23.4,6.1-11.94,0-21.1-3.13-27.5-9.4Z"></path><path d="M96.79,102.94c-9.53,0-17.33-2.03-23.4-6.1-6.07-4.07-9.67-9.73-10.8-17h9c1.13,5.8,3.87,10.3,8.2,13.5,4.33,3.2,9.84,4.8,16.5,4.8,8.73,0,15.43-2.72,20.1-8.15,4.67-5.43,7-13.22,7-23.35,0-9.93-2.32-17.57-6.95-22.9-4.63-5.33-11.28-8-19.95-8-6.67,0-12.2,1.62-16.6,4.85-4.4,3.23-7.17,7.72-8.3,13.45h-9c1.13-7.27,4.73-12.93,10.8-17,6.07-4.07,13.94-6.1,23.6-6.1,11.87,0,20.98,3.1,27.35,9.3,6.37,6.2,9.55,15,9.55,26.4,0,11.67-3.2,20.64-9.6,26.9-6.4,6.27-15.57,9.4-27.5,9.4Z"></path><path d="M93.56,124.27c-6.27,6.4-15.23,9.6-26.9,9.6s-20.2-3.18-26.4-9.55c-6.2-6.37-9.3-15.48-9.3-27.35,0-9.67,2.03-17.53,6.1-23.6,4.07-6.07,9.73-9.67,17-10.8v9c-5.73,1.13-10.22,3.9-13.45,8.3-3.23,4.4-4.85,9.94-4.85,16.6,0,8.67,2.67,15.32,8,19.95,5.33,4.63,12.97,6.95,22.9,6.95s17.92-2.33,23.35-7c5.43-4.67,8.15-11.37,8.15-20.1,0-6.67-1.6-12.17-4.8-16.5-3.2-4.33-7.7-7.07-13.5-8.2v-9c7.27,1.13,12.93,4.73,17,10.8,4.07,6.07,6.1,13.87,6.1,23.4,0,11.94-3.13,21.1-9.4,27.5Z"></path><path d="M102.96,37.1c0,9.53-2.03,17.33-6.1,23.4-4.07,6.07-9.73,9.67-17,10.8v-9c5.8-1.13,10.3-3.87,13.5-8.2,3.2-4.33,4.8-9.84,4.8-16.5,0-8.73-2.72-15.43-8.15-20.1-5.43-4.67-13.22-7-23.35-7-9.93,0-17.57,2.32-22.9,6.95-5.33,4.63-8,11.28-8,19.95,0,6.67,1.62,12.2,4.85,16.6,3.23,4.4,7.72,7.17,13.45,8.3v9c-7.27-1.13-12.93-4.73-17-10.8-4.07-6.07-6.1-13.94-6.1-23.6,0-11.87,3.1-20.98,9.3-27.35C46.45,3.18,55.25,0,66.65,0c11.67,0,20.64,3.2,26.9,9.6,6.27,6.4,9.4,15.57,9.4,27.5Z"></path></g><line x1="230.0" y1="186.0" x2="230.0" y2="200.0" stroke="#17D4D4" stroke-width="1.5" opacity="0.5"></line><path d="M228.5,172.0 L230.0,170.5 L231.5,172.0" fill="none" stroke="#17D4D4" stroke-width="1.7" stroke-linecap="round" stroke-linejoin="round"></path><path d="M223.5,172.0 L230.0,165.5 L236.5,172.0" fill="none" stroke="#17D4D4" stroke-width="1.7" stroke-linecap="round" stroke-linejoin="round"></path><line x1="274.0" y1="230.0" x2="260.0" y2="230.0" stroke="#FF6B2C" stroke-width="1.5" opacity="0.5"></line><path d="M288.0,228.5 L289.5,230.0 L288.0,231.5" fill="none" stroke="#FF6B2C" stroke-width="1.7" stroke-linecap="round" stroke-linejoin="round"></path><path d="M288.0,223.5 L294.5,230.0 L288.0,236.5" fill="none" stroke="#FF6B2C" stroke-width="1.7" stroke-linecap="round" stroke-linejoin="round"></path><line x1="230.0" y1="274.0" x2="230.0" y2="260.0" stroke="#BEE83A" stroke-width="1.5" opacity="0.5"></line><path d="M231.5,288.0 L230.0,289.5 L228.5,288.0" fill="none" stroke="#BEE83A" stroke-width="1.7" stroke-linecap="round" stroke-linejoin="round"></path><path d="M236.5,288.0 L230.0,294.5 L223.5,288.0" fill="none" stroke="#BEE83A" stroke-width="1.7" stroke-linecap="round" stroke-linejoin="round"></path><line x1="186.0" y1="230.0" x2="200.0" y2="230.0" stroke="#FF2D8E" stroke-width="1.5" opacity="0.5"></line><path d="M172.0,231.5 L170.5,230.0 L172.0,228.5" fill="none" stroke="#FF2D8E" stroke-width="1.7" stroke-linecap="round" stroke-linejoin="round"></path><path d="M172.0,236.5 L165.5,230.0 L172.0,223.5" fill="none" stroke="#FF2D8E" stroke-width="1.7" stroke-linecap="round" stroke-linejoin="round"></path>
</svg>